<?xml version="1.0" encoding="UTF-8" standalone="no"?>
<svg
   xmlns:dc="http://purl.org/dc/elements/1.1/"
   xmlns:cc="http://creativecommons.org/ns#"
   xmlns:rdf="http://www.w3.org/1999/02/22-rdf-syntax-ns#"
   xmlns:svg="http://www.w3.org/2000/svg"
   xmlns="http://www.w3.org/2000/svg"
   xmlns:sodipodi="http://sodipodi.sourceforge.net/DTD/sodipodi-0.dtd"
   xmlns:inkscape="http://www.inkscape.org/namespaces/inkscape"
   id="Capa_1"
   enable-background="new 0 0 512.008 512.008"
   height="600"
   viewBox="0 0 600.00938 600.00938"
   width="600"
   version="1.1"
   sodipodi:docname="crown.svg"
   inkscape:version="0.92.4 (5da689c313, 2019-01-14)">
  <metadata
     id="metadata11">
    <rdf:RDF>
      <cc:Work
         rdf:about="">
        <dc:format>image/svg+xml</dc:format>
        <dc:type
           rdf:resource="http://purl.org/dc/dcmitype/StillImage" />
        <dc:title></dc:title>
      </cc:Work>
    </rdf:RDF>
  </metadata>
  <defs
     id="defs9" />
  <sodipodi:namedview
     pagecolor="#ffffff"
     bordercolor="#666666"
     borderopacity="1"
     objecttolerance="10"
     gridtolerance="10"
     guidetolerance="10"
     inkscape:pageopacity="0"
     inkscape:pageshadow="2"
     inkscape:window-width="1920"
     inkscape:window-height="1001"
     id="namedview7"
     showgrid="true"
     showguides="false"
     inkscape:zoom="0.85"
     inkscape:cx="256"
     inkscape:cy="256"
     inkscape:window-x="-9"
     inkscape:window-y="-9"
     inkscape:window-maximized="1"
     inkscape:current-layer="layer2">
    <inkscape:grid
       type="xygrid"
       id="grid4521" />
  </sodipodi:namedview>
  <g
     inkscape:groupmode="layer"
     id="layer2"
     inkscape:label="Background">
    <rect
       style="fill:#3b3b3b;fill-opacity:1;stroke-width:0.55602652"
       id="rect4523"
       width="610.00952"
       height="610.00952"
       x="1.4716145e-05"
       y="-3.3994593e-14" />
  </g>
  <g
     inkscape:groupmode="layer"
     id="layer1"
     inkscape:label="Crown">
    <g
       id="g4"
       transform="translate(45.16569,45.017501)"
       style="fill:#ececec">
      <path
         d="m 492.127,113.264 c -13.363,-7.52 -29.279,-4.251 -37.761,4.08 -54.715,53.759 -54.39,54.515 -60.926,56.938 -8.125,3.014 -16.522,1.351 -23.199,-4.023 C 269.651,85.742 276.095,91.11 275.202,90.49 c -13.77,-9.543 -31.099,-6.785 -40.366,2.112 -98.719,94.714 -93.135,89.869 -97.162,92.029 -11.37,6.094 -22.791,2.068 -31.026,-7.425 -51.477,-59.34 -47.677,-55.064 -48.849,-56.078 -25.258,-21.86 -61.571,1.448 -57.481,37.395 11.18,112.339 18.755,188.457 18.765,188.557 3.623,36.404 2.45,25.056 2.721,27.318 3.448,29.513 25.034,53.098 52.473,53.098 h 363.027 c 28.265,0 49.712,-25.145 52.5,-53.35 l 21.895,-219.35 c 1.985,-17.425 -5.687,-33.717 -19.572,-41.532 z m -457.419,29.82 c 0.797,-0.421 1.535,-0.671 2.823,0.229 l 46.455,53.551 c 23.185,26.726 58.116,26.459 79.807,5.474 l 91.046,-87.353 c 1,-0.621 1.881,-0.647 2.875,-0.089 98.223,82.529 93.355,78.441 93.554,78.603 14.866,12.028 34.304,15.695 52.601,8.912 14.144,-5.244 16.024,-9.14 70.75,-62.909 1.154,-0.748 1.859,-0.62 2.792,-0.095 2.658,1.496 5.191,5.903 4.474,12.044 -0.025,0.214 0.632,-6.355 -17.874,179.045 H 47.58 C 29.982,153.666 30.153,155.367 30.131,155.183 c -0.781,-6.685 2.31,-10.898 4.577,-12.099 z M 437.304,397.496 H 74.276 c -11.127,0 -20.854,-11.366 -22.662,-26.46 l -1.049,-10.54 h 410.451 l -1.052,10.537 c -1.806,15.095 -11.532,26.463 -22.66,26.463 z"
         id="path2"
         inkscape:connector-curvature="0"
         style="fill:#ececec" />
    </g>
  </g>
</svg>
